<svg id="svg" version="1.1" xmlns="http://www.w3.org/2000/svg" xmlns:xlink="http://www.w3.org/1999/xlink" width="400" height="106.66666666666667" viewBox="0, 0, 400,106.66666666666667"><g id="svgg"><path id="path0" d="M111.000 0.681 C 111.000 1.110,110.957 1.172,110.769 1.016 C 110.592 0.869,110.517 0.881,110.445 1.068 C 110.394 1.202,110.442 1.342,110.551 1.378 C 110.840 1.474,110.840 36.526,110.551 36.622 C 110.442 36.658,110.394 36.798,110.446 36.932 C 110.524 37.136,110.577 37.127,110.764 36.880 C 110.980 36.596,110.990 36.596,110.995 36.881 C 110.999 37.126,111.058 37.147,111.333 37.000 C 111.664 36.823,111.667 36.651,111.667 18.667 C 111.667 0.682,111.664 0.510,111.333 0.333 C 111.033 0.172,111.000 0.207,111.000 0.681 M111.125 27.792 C 111.100 32.627,111.080 28.671,111.080 19.000 C 111.080 9.329,111.100 5.373,111.125 10.208 C 111.150 15.044,111.150 22.956,111.125 27.792 M129.000 8.667 C 128.848 8.951,128.651 9.000,127.667 9.000 C 126.682 9.000,126.485 9.049,126.333 9.333 C 126.217 9.550,125.984 9.667,125.667 9.667 C 125.349 9.667,125.116 9.783,125.000 10.000 C 124.884 10.217,124.651 10.333,124.333 10.333 C 124.016 10.333,123.783 10.450,123.667 10.667 C 123.551 10.884,123.318 11.000,123.000 11.000 C 122.682 11.000,122.449 11.116,122.333 11.333 C 122.226 11.534,121.984 11.667,121.726 11.667 C 121.420 11.667,121.021 11.953,120.333 12.667 C 119.740 13.282,119.232 13.667,119.010 13.667 C 118.520 13.667,117.000 15.203,116.998 15.700 C 116.997 15.937,116.743 16.307,116.333 16.667 C 115.868 17.076,115.669 17.385,115.668 17.702 C 115.667 17.983,115.540 18.223,115.333 18.333 C 115.116 18.449,115.000 18.682,115.000 19.000 C 115.000 19.318,114.884 19.551,114.667 19.667 C 114.450 19.783,114.333 20.016,114.333 20.333 C 114.333 20.651,114.217 20.884,114.000 21.000 C 113.736 21.141,113.667 21.349,113.667 22.000 C 113.667 22.651,113.597 22.859,113.333 23.000 C 113.018 23.169,113.000 23.349,113.000 26.333 C 113.000 29.318,113.018 29.498,113.333 29.667 C 113.597 29.808,113.667 30.016,113.667 30.667 C 113.667 31.318,113.736 31.525,114.000 31.667 C 114.217 31.783,114.333 32.016,114.333 32.333 C 114.333 32.651,114.450 32.884,114.667 33.000 C 114.884 33.116,115.000 33.349,115.000 33.667 C 115.000 33.984,115.116 34.217,115.333 34.333 C 115.536 34.442,115.667 34.682,115.667 34.948 C 115.667 35.245,115.884 35.585,116.343 36.009 C 117.234 36.832,117.292 38.207,116.440 38.305 C 115.534 38.408,113.667 40.496,113.667 41.405 C 113.667 41.984,113.591 42.196,113.333 42.333 C 113.011 42.506,113.000 42.682,113.000 47.667 C 113.000 52.651,113.011 52.828,113.333 53.000 C 113.550 53.116,113.667 53.349,113.667 53.667 C 113.667 53.984,113.783 54.217,114.000 54.333 C 114.198 54.439,114.333 54.682,114.333 54.930 C 114.333 55.505,115.828 57.000,116.403 57.000 C 116.651 57.000,116.894 57.136,117.000 57.333 C 117.116 57.550,117.349 57.667,117.667 57.667 C 117.984 57.667,118.217 57.783,118.333 58.000 C 118.449 58.217,118.682 58.333,119.000 58.333 C 119.318 58.333,119.551 58.450,119.667 58.667 C 119.808 58.931,120.016 59.000,120.667 59.000 C 121.318 59.000,121.525 59.069,121.667 59.333 C 121.807 59.596,122.016 59.667,122.652 59.667 C 123.289 59.667,123.509 59.741,123.693 60.019 C 123.927 60.371,123.938 60.371,133.667 60.371 C 143.396 60.371,143.406 60.371,143.640 60.019 C 143.825 59.741,144.044 59.667,144.681 59.667 C 145.318 59.667,145.526 59.596,145.667 59.333 C 145.783 59.116,146.016 59.000,146.333 59.000 C 146.651 59.000,146.884 58.884,147.000 58.667 C 147.116 58.450,147.349 58.333,147.667 58.333 C 147.984 58.333,148.217 58.217,148.333 58.000 C 148.449 57.783,148.682 57.667,149.000 57.667 C 149.318 57.667,149.551 57.550,149.667 57.333 C 149.772 57.136,150.016 57.000,150.264 57.000 C 150.582 57.000,151.245 56.434,153.000 54.667 C 154.532 53.124,155.437 52.333,155.671 52.333 C 156.127 52.333,157.000 53.203,157.000 53.657 C 157.000 54.190,161.868 59.000,162.408 59.000 C 162.651 59.000,162.895 59.137,163.000 59.333 C 163.114 59.547,163.349 59.667,163.652 59.667 C 163.932 59.667,164.220 59.799,164.355 59.990 C 164.570 60.295,164.884 60.319,169.701 60.407 C 174.786 60.501,174.820 60.504,175.242 60.895 C 175.802 61.413,175.858 62.719,175.333 63.000 C 175.005 63.176,175.000 63.349,175.000 74.667 C 175.000 85.984,175.005 86.158,175.333 86.333 C 175.550 86.449,175.667 86.682,175.667 87.000 C 175.667 87.318,175.783 87.551,176.000 87.667 C 176.198 87.772,176.333 88.016,176.333 88.264 C 176.333 88.839,177.828 90.333,178.403 90.333 C 178.651 90.333,178.894 90.469,179.000 90.667 C 179.141 90.931,179.349 91.000,180.000 91.000 C 180.651 91.000,180.859 91.069,181.000 91.333 C 181.168 91.647,181.349 91.667,184.000 91.667 C 186.651 91.667,186.832 91.647,187.000 91.333 C 187.141 91.069,187.349 91.000,188.000 91.000 C 188.651 91.000,188.859 90.931,189.000 90.667 C 189.111 90.460,189.350 90.333,189.631 90.332 C 189.948 90.331,190.257 90.132,190.667 89.667 C 191.054 89.226,191.390 89.003,191.667 89.003 C 191.944 89.003,192.279 89.226,192.667 89.667 C 193.076 90.132,193.385 90.331,193.702 90.332 C 193.983 90.333,194.223 90.460,194.333 90.667 C 194.475 90.931,194.682 91.000,195.333 91.000 C 195.984 91.000,196.192 91.069,196.333 91.333 C 196.501 91.647,196.682 91.667,199.333 91.667 C 201.984 91.667,202.166 91.647,202.333 91.333 C 202.475 91.069,202.682 91.000,203.333 91.000 C 203.984 91.000,204.192 90.931,204.333 90.667 C 204.444 90.460,204.683 90.333,204.964 90.332 C 205.282 90.331,205.591 90.132,206.000 89.667 C 206.518 89.078,206.668 89.003,207.333 89.003 C 207.999 89.003,208.149 89.078,208.667 89.667 C 209.076 90.132,209.385 90.331,209.702 90.332 C 209.983 90.333,210.223 90.460,210.333 90.667 C 210.485 90.951,210.682 91.000,211.667 91.000 C 212.651 91.000,212.848 91.049,213.000 91.333 C 213.279 91.854,223.388 91.854,223.667 91.333 C 223.808 91.069,224.016 91.000,224.667 91.000 C 225.318 91.000,225.525 90.931,225.667 90.667 C 225.783 90.450,226.016 90.333,226.333 90.333 C 226.651 90.333,226.884 90.217,227.000 90.000 C 227.116 89.783,227.349 89.667,227.667 89.667 C 227.984 89.667,228.217 89.550,228.333 89.333 C 228.592 88.850,230.075 88.850,230.333 89.333 C 230.444 89.540,230.683 89.667,230.964 89.668 C 231.282 89.669,231.591 89.868,232.000 90.333 C 232.571 90.983,232.607 90.997,233.702 90.998 C 234.650 91.000,234.849 91.051,235.000 91.333 C 235.279 91.854,245.388 91.854,245.667 91.333 C 245.819 91.049,246.016 91.000,247.000 91.000 C 247.984 91.000,248.181 90.951,248.333 90.667 C 248.485 90.383,248.682 90.333,249.667 90.333 C 250.651 90.333,250.848 90.383,251.000 90.667 C 251.152 90.951,251.349 91.000,252.333 91.000 C 253.318 91.000,253.515 91.049,253.667 91.333 C 253.946 91.855,265.388 91.855,265.667 91.333 C 265.819 91.049,266.016 91.000,267.000 91.000 C 267.984 91.000,268.181 90.951,268.333 90.667 C 268.491 90.372,268.682 90.333,270.000 90.333 C 271.318 90.333,271.509 90.372,271.667 90.667 C 271.808 90.931,272.016 91.000,272.667 91.000 C 273.318 91.000,273.525 91.069,273.667 91.333 C 273.834 91.647,274.016 91.667,276.667 91.667 C 279.318 91.667,279.499 91.647,279.667 91.333 C 279.808 91.069,280.016 91.000,280.667 91.000 C 281.318 91.000,281.525 90.931,281.667 90.667 C 281.783 90.450,282.016 90.333,282.333 90.333 C 282.651 90.333,282.884 90.217,283.000 90.000 C 283.141 89.736,283.349 89.667,284.000 89.667 C 284.651 89.667,284.859 89.736,285.000 90.000 C 285.116 90.217,285.349 90.333,285.667 90.333 C 285.984 90.333,286.217 90.450,286.333 90.667 C 286.485 90.951,286.682 91.000,287.667 91.000 C 288.651 91.000,288.848 91.049,289.000 91.333 C 289.173 91.657,289.349 91.667,295.333 91.667 C 301.318 91.667,301.493 91.657,301.667 91.333 C 301.833 91.023,302.016 91.000,304.333 91.000 C 306.651 91.000,306.834 91.023,307.000 91.333 C 307.168 91.647,307.349 91.667,310.000 91.667 C 312.651 91.667,312.832 91.647,313.000 91.333 C 313.138 91.075,313.349 91.000,313.941 91.000 C 314.653 91.000,314.765 90.935,315.653 90.014 C 316.311 89.331,316.754 89.011,317.093 88.972 C 317.512 88.925,317.595 88.832,317.667 88.333 C 317.771 87.606,318.225 87.532,318.305 88.229 C 318.379 88.878,319.830 90.333,320.403 90.333 C 320.651 90.333,320.894 90.469,321.000 90.667 C 321.141 90.931,321.349 91.000,322.000 91.000 C 322.651 91.000,322.859 91.069,323.000 91.333 C 323.276 91.850,329.390 91.850,329.667 91.333 C 329.783 91.116,330.016 91.000,330.333 91.000 C 330.651 91.000,330.884 90.884,331.000 90.667 C 331.116 90.450,331.349 90.333,331.667 90.333 C 331.984 90.333,332.217 90.217,332.333 90.000 C 332.448 89.787,332.682 89.667,332.986 89.667 C 333.286 89.667,333.558 89.529,333.730 89.292 L 334.000 88.917 334.270 89.292 C 334.432 89.516,334.717 89.667,334.979 89.668 C 335.279 89.669,335.600 89.878,336.000 90.333 C 336.524 90.930,336.663 90.997,337.369 90.998 C 337.983 91.000,338.194 91.073,338.333 91.333 C 338.502 91.649,338.682 91.667,341.667 91.667 C 344.651 91.667,344.831 91.649,345.000 91.333 C 345.139 91.073,345.350 91.000,345.964 90.998 C 346.671 90.997,346.809 90.930,347.333 90.333 C 347.734 89.878,348.054 89.669,348.355 89.668 C 348.622 89.667,348.891 89.520,349.045 89.292 L 349.298 88.917 349.957 89.625 C 350.408 90.110,350.753 90.333,351.052 90.333 C 351.318 90.333,351.558 90.464,351.667 90.667 C 351.819 90.951,352.016 91.000,353.000 91.000 C 353.984 91.000,354.181 91.049,354.333 91.333 C 354.508 91.659,354.682 91.667,362.000 91.667 C 369.318 91.667,369.492 91.659,369.667 91.333 C 369.819 91.049,370.016 91.000,371.000 91.000 C 371.984 91.000,372.181 90.951,372.333 90.667 C 372.449 90.450,372.682 90.333,373.000 90.333 C 373.318 90.333,373.551 90.450,373.667 90.667 C 373.808 90.931,374.016 91.000,374.667 91.000 C 375.318 91.000,375.525 91.069,375.667 91.333 C 375.947 91.856,390.720 91.856,391.000 91.333 C 391.141 91.069,391.349 91.000,392.000 91.000 C 392.651 91.000,392.859 90.931,393.000 90.667 C 393.116 90.450,393.349 90.333,393.667 90.333 C 393.984 90.333,394.217 90.217,394.333 90.000 C 394.439 89.802,394.682 89.667,394.930 89.667 C 395.462 89.667,397.000 88.173,397.000 87.656 C 397.000 87.435,397.385 86.926,398.000 86.333 C 398.714 85.646,399.000 85.247,399.000 84.941 C 399.000 84.682,399.133 84.441,399.333 84.333 C 399.597 84.192,399.667 83.984,399.667 83.337 C 399.667 82.888,399.742 82.473,399.833 82.417 C 399.938 82.352,400.000 80.585,400.000 77.667 C 400.000 74.748,399.938 72.981,399.833 72.917 C 399.742 72.860,399.666 72.312,399.665 71.698 C 399.663 70.608,399.649 70.570,399.000 70.000 C 398.595 69.644,398.336 69.269,398.335 69.038 C 398.333 68.481,394.820 65.000,394.260 65.000 C 394.016 65.000,393.772 64.863,393.667 64.667 C 393.509 64.372,393.318 64.333,392.000 64.333 C 390.692 64.333,390.491 64.294,390.337 64.006 C 390.185 63.723,389.953 63.673,388.622 63.631 L 387.083 63.583 387.036 61.711 C 386.994 60.047,386.953 59.820,386.661 59.664 C 386.410 59.529,386.333 59.314,386.333 58.736 C 386.333 57.833,385.042 56.333,384.264 56.333 C 384.016 56.333,383.772 56.198,383.667 56.000 C 383.551 55.783,383.318 55.667,383.000 55.667 C 382.682 55.667,382.449 55.550,382.333 55.333 C 382.057 54.817,375.943 54.817,375.667 55.333 C 375.551 55.550,375.318 55.667,375.000 55.667 C 374.682 55.667,374.449 55.783,374.333 56.000 C 374.228 56.198,373.984 56.333,373.736 56.333 C 373.161 56.333,371.667 57.828,371.667 58.403 C 371.667 58.651,371.531 58.894,371.333 59.000 C 371.069 59.141,371.000 59.349,371.000 60.000 C 371.000 60.646,370.930 60.859,370.673 60.997 C 370.390 61.148,370.339 61.380,370.298 62.711 L 370.250 64.250 369.719 64.301 C 369.322 64.340,369.143 64.267,369.005 64.010 C 368.729 63.493,365.276 63.485,365.000 64.000 C 364.848 64.284,364.651 64.333,363.667 64.333 C 362.682 64.333,362.485 64.383,362.333 64.667 C 362.064 65.170,359.269 65.170,359.000 64.667 C 358.848 64.383,358.651 64.333,357.667 64.333 C 356.682 64.333,356.485 64.284,356.333 64.000 C 356.057 63.485,352.605 63.493,352.328 64.010 C 352.009 64.607,351.097 64.395,351.031 63.709 C 351.000 63.382,350.851 63.099,350.656 62.994 C 350.450 62.884,350.333 62.646,350.333 62.333 C 350.333 62.016,350.217 61.783,350.000 61.667 C 349.803 61.561,349.667 61.318,349.667 61.072 C 349.667 60.489,347.511 58.333,346.928 58.333 C 346.682 58.333,346.439 58.197,346.333 58.000 C 346.181 57.716,345.984 57.667,345.000 57.667 C 344.016 57.667,343.819 57.617,343.667 57.333 C 343.395 56.825,339.938 56.825,339.667 57.333 C 339.470 57.701,337.294 57.841,337.083 57.500 C 337.027 57.408,337.885 56.438,338.990 55.343 C 340.502 53.846,341.000 53.249,341.000 52.932 C 341.000 52.682,341.135 52.439,341.333 52.333 C 341.550 52.217,341.667 51.984,341.667 51.667 C 341.667 51.349,341.783 51.116,342.000 51.000 C 342.284 50.848,342.333 50.651,342.333 49.667 C 342.333 48.682,342.383 48.485,342.667 48.333 C 342.980 48.166,343.000 47.984,343.000 45.333 C 343.000 42.682,342.980 42.501,342.667 42.333 C 342.404 42.193,342.333 41.984,342.333 41.348 C 342.333 40.846,342.242 40.465,342.092 40.340 C 341.958 40.230,341.798 39.789,341.735 39.361 C 341.646 38.751,341.483 38.454,340.977 37.984 C 340.203 37.263,340.034 36.005,340.667 35.667 C 340.884 35.551,341.000 35.318,341.000 35.000 C 341.000 34.682,341.116 34.449,341.333 34.333 C 341.550 34.217,341.667 33.984,341.667 33.667 C 341.667 33.349,341.783 33.116,342.000 33.000 C 342.313 32.832,342.333 32.651,342.333 30.000 C 342.333 27.349,342.313 27.168,342.000 27.000 C 341.736 26.859,341.667 26.651,341.667 26.000 C 341.667 25.349,341.597 25.141,341.333 25.000 C 341.137 24.895,341.000 24.651,341.000 24.406 C 341.000 23.819,338.181 21.000,337.594 21.000 C 337.349 21.000,337.105 20.863,337.000 20.667 C 336.859 20.404,336.651 20.333,336.014 20.333 C 335.380 20.333,335.158 20.259,334.975 19.984 C 334.745 19.637,334.691 19.635,325.673 19.626 L 316.601 19.617 316.364 19.975 C 316.175 20.260,315.960 20.333,315.319 20.333 C 314.682 20.333,314.474 20.404,314.333 20.667 C 314.217 20.884,313.984 21.000,313.667 21.000 C 313.349 21.000,313.116 21.116,313.000 21.333 C 312.884 21.550,312.651 21.667,312.333 21.667 C 312.016 21.667,311.783 21.783,311.667 22.000 C 311.333 22.624,310.711 22.417,309.667 21.333 C 308.765 20.397,308.655 20.333,307.941 20.333 C 307.353 20.333,307.138 20.258,307.003 20.005 C 306.847 19.714,306.619 19.672,304.955 19.630 L 303.083 19.583 303.035 18.044 C 302.994 16.714,302.943 16.481,302.660 16.330 C 302.408 16.195,302.333 15.979,302.333 15.385 C 302.333 14.704,302.259 14.546,301.682 14.014 C 301.263 13.628,301.009 13.234,300.973 12.914 C 300.926 12.501,300.832 12.407,300.419 12.360 C 300.100 12.324,299.706 12.070,299.320 11.652 C 298.736 11.020,298.684 11.000,297.615 11.000 C 296.682 11.000,296.484 10.948,296.333 10.667 C 296.056 10.148,288.611 10.148,288.333 10.667 C 288.181 10.951,287.984 11.000,287.000 11.000 C 286.016 11.000,285.819 11.049,285.667 11.333 C 285.561 11.531,285.318 11.667,285.070 11.667 C 284.495 11.667,283.000 13.161,283.000 13.736 C 283.000 13.984,282.864 14.228,282.667 14.333 C 282.403 14.475,282.333 14.682,282.333 15.333 C 282.333 15.984,282.264 16.192,282.000 16.333 C 281.699 16.494,281.667 16.682,281.667 18.269 C 281.667 20.181,281.265 21.000,280.328 21.000 C 280.099 21.000,279.590 21.387,278.960 22.041 C 277.959 23.080,277.956 23.082,277.708 22.708 C 277.547 22.466,277.292 22.333,276.986 22.333 C 276.682 22.333,276.448 22.213,276.333 22.000 C 276.223 21.793,275.983 21.666,275.702 21.665 C 275.385 21.664,275.076 21.466,274.667 21.000 C 274.145 20.407,274.002 20.336,273.312 20.335 C 272.719 20.334,272.488 20.254,272.312 19.989 C 271.953 19.450,256.049 19.452,255.688 19.991 C 255.510 20.258,255.281 20.333,254.652 20.333 C 254.016 20.333,253.807 20.404,253.667 20.667 C 253.551 20.884,253.318 21.000,253.000 21.000 C 252.682 21.000,252.449 21.116,252.333 21.333 C 252.223 21.540,251.983 21.667,251.702 21.668 C 251.385 21.669,251.076 21.868,250.667 22.333 C 250.306 22.743,249.937 22.997,249.700 22.998 C 249.429 23.000,248.631 23.690,246.989 25.344 C 244.459 27.893,243.824 28.233,243.696 27.109 C 243.623 26.471,239.523 22.334,238.961 22.332 C 238.731 22.331,238.356 22.071,238.000 21.667 C 237.591 21.201,237.282 21.003,236.964 21.002 C 236.683 21.001,236.444 20.873,236.333 20.667 C 236.193 20.404,235.984 20.333,235.348 20.333 C 234.718 20.333,234.490 20.258,234.312 19.990 C 233.952 19.450,218.714 19.450,218.355 19.990 C 218.176 20.258,217.949 20.333,217.319 20.333 C 216.682 20.333,216.474 20.404,216.333 20.667 C 216.217 20.884,215.984 21.000,215.667 21.000 C 215.349 21.000,215.116 21.116,215.000 21.333 C 214.884 21.550,214.651 21.667,214.333 21.667 C 214.016 21.667,213.783 21.783,213.667 22.000 C 213.551 22.217,213.318 22.333,213.000 22.333 C 212.682 22.333,212.449 22.450,212.333 22.667 C 211.975 23.337,211.389 23.086,210.000 21.667 C 209.044 20.690,208.581 20.333,208.270 20.333 C 208.016 20.333,207.773 20.200,207.667 20.000 C 207.389 19.480,198.611 19.480,198.333 20.000 C 198.061 20.510,195.980 20.492,195.638 19.978 C 195.261 19.410,184.078 19.401,183.702 19.968 C 183.356 20.488,181.276 20.517,181.003 20.005 C 180.843 19.707,180.619 19.672,178.622 19.630 L 176.417 19.583 176.369 18.044 C 176.327 16.714,176.277 16.481,175.994 16.330 C 175.741 16.195,175.667 15.979,175.667 15.385 C 175.667 14.704,175.592 14.546,175.015 14.014 C 174.597 13.628,174.343 13.234,174.307 12.914 C 174.260 12.501,174.165 12.407,173.752 12.360 C 173.433 12.324,173.039 12.070,172.653 11.652 C 172.070 11.020,172.017 11.000,170.948 11.000 C 170.016 11.000,169.817 10.948,169.667 10.667 C 169.496 10.348,169.318 10.333,165.667 10.333 C 162.016 10.333,161.837 10.348,161.667 10.667 C 161.515 10.951,161.318 11.000,160.333 11.000 C 159.349 11.000,159.152 11.049,159.000 11.333 C 158.889 11.540,158.650 11.667,158.369 11.668 C 158.052 11.669,157.743 11.868,157.333 12.333 C 156.326 13.478,155.639 13.341,154.000 11.667 C 153.044 10.690,152.581 10.333,152.270 10.333 C 152.016 10.333,151.773 10.200,151.667 10.000 C 151.525 9.736,151.318 9.667,150.667 9.667 C 150.016 9.667,149.808 9.597,149.667 9.333 C 149.509 9.038,149.318 9.000,148.000 9.000 C 146.682 9.000,146.491 8.962,146.333 8.667 C 146.159 8.340,145.984 8.333,137.667 8.333 C 129.349 8.333,129.175 8.340,129.000 8.667 M179.628 39.919 C 179.675 44.249,179.597 44.784,179.033 44.048 C 178.797 43.740,178.558 43.672,177.583 43.632 L 176.417 43.583 176.417 40.000 L 176.417 36.417 177.623 36.368 C 178.633 36.327,178.859 36.264,179.009 35.983 C 179.479 35.104,179.583 35.764,179.628 39.919 M304.302 37.249 C 304.331 37.706,304.469 38.207,304.609 38.361 C 304.752 38.520,304.901 39.100,304.951 39.696 C 305.019 40.497,305.125 40.822,305.395 41.048 L 305.750 41.346 305.375 41.610 C 305.160 41.762,305.000 42.048,305.000 42.283 C 305.000 42.885,304.120 43.703,303.543 43.636 L 303.083 43.583 303.038 40.171 C 302.986 36.248,302.978 36.294,303.707 36.364 C 304.232 36.415,304.252 36.444,304.302 37.249 M110.769 38.207 C 110.693 38.367,110.583 38.469,110.524 38.433 C 110.465 38.397,110.417 38.935,110.417 39.627 C 110.417 40.433,110.486 40.911,110.610 40.952 C 110.954 41.069,111.041 40.654,110.740 40.323 C 110.464 40.018,110.464 39.983,110.735 39.684 C 110.937 39.460,111.004 39.156,110.963 38.642 C 110.921 38.112,110.869 37.995,110.769 38.207 M203.629 41.288 C 203.671 43.952,203.698 44.172,204.004 44.335 C 204.281 44.484,204.333 44.687,204.333 45.618 C 204.333 46.394,204.412 46.811,204.598 47.016 C 204.752 47.186,204.901 47.749,204.955 48.363 C 205.039 49.318,205.108 49.473,205.691 50.016 C 206.090 50.388,206.334 50.767,206.335 51.016 C 206.336 51.273,206.574 51.626,207.000 52.000 C 207.406 52.357,207.664 52.731,207.665 52.963 C 207.667 53.487,210.513 56.333,211.037 56.335 C 211.269 56.336,211.643 56.594,212.000 57.000 C 212.409 57.466,212.718 57.664,213.036 57.665 C 213.317 57.666,213.556 57.793,213.667 58.000 C 213.783 58.217,214.016 58.333,214.333 58.333 C 214.651 58.333,214.884 58.450,215.000 58.667 C 215.116 58.884,215.349 59.000,215.667 59.000 C 215.984 59.000,216.217 59.116,216.333 59.333 C 216.474 59.596,216.682 59.667,217.319 59.667 C 217.954 59.667,218.176 59.741,218.358 60.017 C 218.590 60.365,218.626 60.367,228.000 60.367 C 237.374 60.367,237.410 60.365,237.642 60.017 C 237.824 59.741,238.046 59.667,238.681 59.667 C 239.318 59.667,239.526 59.596,239.667 59.333 C 239.783 59.116,240.016 59.000,240.333 59.000 C 240.651 59.000,240.884 58.884,241.000 58.667 C 241.106 58.469,241.349 58.333,241.599 58.333 C 241.915 58.333,242.511 57.837,244.000 56.333 C 246.398 53.912,246.299 53.928,248.000 55.667 C 248.956 56.644,249.419 57.000,249.730 57.000 C 249.984 57.000,250.227 57.134,250.333 57.333 C 250.449 57.550,250.682 57.667,251.000 57.667 C 251.318 57.667,251.551 57.783,251.667 58.000 C 251.783 58.217,252.016 58.333,252.333 58.333 C 252.651 58.333,252.884 58.450,253.000 58.667 C 253.116 58.884,253.349 59.000,253.667 59.000 C 253.984 59.000,254.217 59.116,254.333 59.333 C 254.474 59.596,254.682 59.667,255.319 59.667 C 255.925 59.667,256.183 59.747,256.355 59.987 C 256.571 60.290,256.909 60.313,262.417 60.402 L 268.250 60.495 268.250 62.373 L 268.250 64.250 267.719 64.301 C 267.322 64.340,267.143 64.267,267.005 64.010 C 266.747 63.528,258.827 63.470,258.300 63.947 C 258.079 64.147,257.587 64.248,256.573 64.301 C 255.405 64.363,255.126 64.431,254.989 64.688 C 254.860 64.928,254.632 65.000,254.000 65.000 C 253.349 65.000,253.141 65.069,253.000 65.333 C 252.884 65.550,252.651 65.667,252.333 65.667 C 252.016 65.667,251.783 65.783,251.667 66.000 C 251.551 66.217,251.318 66.333,251.000 66.333 C 250.682 66.333,250.449 66.217,250.333 66.000 C 250.217 65.783,249.984 65.667,249.667 65.667 C 249.349 65.667,249.116 65.550,249.000 65.333 C 248.884 65.116,248.651 65.000,248.333 65.000 C 248.016 65.000,247.783 64.884,247.667 64.667 C 247.509 64.372,247.318 64.333,246.000 64.333 C 244.682 64.333,244.491 64.295,244.333 64.000 C 244.163 63.682,243.984 63.667,240.333 63.667 C 236.682 63.667,236.504 63.682,236.333 64.000 C 236.175 64.295,235.984 64.333,234.667 64.333 C 233.349 64.333,233.158 64.372,233.000 64.667 C 232.884 64.884,232.651 65.000,232.333 65.000 C 232.016 65.000,231.783 65.116,231.667 65.333 C 231.558 65.536,231.318 65.667,231.052 65.667 C 230.753 65.667,230.408 65.890,229.957 66.375 L 229.298 67.083 229.045 66.708 C 228.883 66.467,228.624 66.333,228.319 66.333 C 228.016 66.333,227.781 66.213,227.667 66.000 C 227.551 65.783,227.318 65.667,227.000 65.667 C 226.682 65.667,226.449 65.550,226.333 65.333 C 226.217 65.116,225.984 65.000,225.667 65.000 C 225.360 65.000,225.116 64.884,225.011 64.688 C 224.874 64.431,224.595 64.363,223.427 64.301 C 222.413 64.248,221.921 64.147,221.700 63.947 C 221.185 63.481,214.586 63.528,214.333 64.000 C 214.175 64.295,213.984 64.333,212.667 64.333 C 211.349 64.333,211.158 64.372,211.000 64.667 C 210.884 64.884,210.651 65.000,210.333 65.000 C 210.011 65.000,209.783 65.117,209.661 65.343 C 209.524 65.600,209.345 65.673,208.947 65.635 L 208.417 65.583 208.369 64.044 C 208.327 62.714,208.277 62.481,207.994 62.330 C 207.743 62.196,207.667 61.980,207.667 61.405 C 207.667 60.500,205.735 58.333,204.928 58.333 C 204.682 58.333,204.439 58.197,204.333 58.000 C 204.181 57.716,203.984 57.667,203.000 57.667 C 202.026 57.667,201.818 57.616,201.671 57.342 C 201.540 57.096,201.286 57.005,200.624 56.967 L 199.750 56.917 199.700 56.052 C 199.658 55.323,199.703 55.159,199.990 55.005 C 200.324 54.827,200.331 54.682,200.373 46.953 L 200.417 39.083 200.958 39.031 C 201.290 38.999,201.568 38.851,201.677 38.648 C 201.825 38.371,201.996 38.325,202.719 38.367 L 203.583 38.417 203.629 41.288 M110.098 39.416 C 110.039 39.653,109.928 39.809,109.853 39.762 C 109.777 39.715,109.750 39.862,109.794 40.088 C 109.837 40.315,109.898 40.500,109.930 40.500 C 110.028 40.500,110.360 39.137,110.281 39.059 C 110.240 39.018,110.158 39.179,110.098 39.416 M110.500 41.871 C 110.500 41.999,110.614 42.249,110.754 42.426 C 110.996 42.735,111.005 42.728,110.962 42.263 C 110.917 41.780,110.500 41.426,110.500 41.871 M286.333 56.667 C 288.088 58.434,288.751 59.000,289.069 59.000 C 289.318 59.000,289.561 59.136,289.667 59.333 C 289.781 59.547,290.016 59.667,290.319 59.667 C 290.618 59.667,290.880 59.798,291.030 60.024 C 291.266 60.380,291.281 60.381,299.000 60.381 C 306.719 60.381,306.734 60.380,306.970 60.024 C 307.322 59.493,312.049 59.469,312.331 59.996 C 312.493 60.298,312.715 60.328,315.045 60.371 L 317.583 60.417 317.631 61.923 L 317.678 63.429 317.131 63.835 C 316.328 64.431,313.303 64.566,313.010 64.018 C 312.727 63.491,308.615 63.475,308.333 64.000 C 308.181 64.284,307.984 64.333,307.000 64.333 C 306.016 64.333,305.819 64.383,305.667 64.667 C 305.551 64.884,305.318 65.000,305.000 65.000 C 304.682 65.000,304.449 65.116,304.333 65.333 C 304.217 65.550,303.984 65.667,303.667 65.667 C 303.349 65.667,303.116 65.550,303.000 65.333 C 302.859 65.069,302.651 65.000,302.000 65.000 C 301.368 65.000,301.140 64.928,301.011 64.688 C 300.874 64.431,300.595 64.363,299.427 64.301 C 298.413 64.248,297.921 64.147,297.700 63.947 C 297.431 63.704,296.942 63.667,294.000 63.667 C 291.058 63.667,290.569 63.704,290.300 63.947 C 290.079 64.147,289.587 64.248,288.573 64.301 C 287.391 64.363,287.127 64.429,286.984 64.696 C 286.843 64.961,286.661 65.008,285.948 64.967 L 285.083 64.917 285.037 62.712 C 284.995 60.714,284.959 60.490,284.662 60.331 C 284.403 60.192,284.333 59.980,284.333 59.333 C 284.333 58.682,284.264 58.475,284.000 58.333 C 283.783 58.217,283.667 57.984,283.667 57.667 C 283.667 57.349,283.550 57.116,283.333 57.000 C 282.650 56.634,283.166 54.470,283.967 54.341 C 283.994 54.337,285.059 55.383,286.333 56.667 " stroke="none" fill="#fcfcfc" fill-rule="evenodd"></path><path id="path1" d="M110.708 40.944 C 110.418 41.061,110.447 41.611,110.750 41.727 C 110.938 41.799,111.000 41.699,111.000 41.328 C 111.000 41.056,110.981 40.839,110.958 40.846 C 110.935 40.854,110.823 40.897,110.708 40.944 M110.165 41.660 C 110.234 42.038,110.335 42.390,110.388 42.444 C 110.532 42.588,110.312 41.274,110.165 41.112 C 110.096 41.035,110.096 41.282,110.165 41.660 M111.000 43.348 C 111.000 43.797,110.963 43.844,110.750 43.667 C 110.596 43.539,110.500 43.527,110.500 43.634 C 110.500 43.730,110.369 43.843,110.208 43.885 C 109.984 43.944,110.002 43.966,110.284 43.981 C 110.830 44.009,110.853 44.360,110.799 51.700 C 110.772 55.339,110.805 58.261,110.873 58.194 C 110.941 58.126,111.018 54.961,111.046 51.160 L 111.095 44.250 111.089 51.692 C 111.084 58.729,111.099 59.126,111.375 58.978 C 111.861 58.717,111.821 43.261,111.333 43.000 C 111.033 42.839,111.000 42.873,111.000 43.348 M72.333 56.717 C 72.287 56.765,71.837 56.840,71.333 56.883 C 70.829 56.927,70.304 57.006,70.167 57.060 C 70.029 57.113,69.692 57.246,69.417 57.354 C 69.142 57.462,68.816 57.572,68.694 57.596 C 68.571 57.621,68.346 57.748,68.194 57.879 C 68.041 58.010,67.467 58.287,66.917 58.495 C 66.367 58.702,65.804 58.939,65.667 59.020 C 65.529 59.101,65.257 59.237,65.061 59.322 C 64.866 59.407,64.303 59.855,63.811 60.317 C 63.319 60.779,62.861 61.159,62.794 61.162 C 62.616 61.169,62.097 61.609,60.874 62.790 C 60.281 63.362,59.741 63.796,59.673 63.754 C 59.491 63.642,58.810 64.327,58.923 64.510 C 58.976 64.596,58.871 64.667,58.688 64.667 C 58.506 64.667,58.248 64.776,58.115 64.909 C 57.982 65.042,57.828 65.106,57.774 65.052 C 57.719 64.997,57.560 65.047,57.421 65.163 C 57.211 65.337,57.167 65.328,57.167 65.108 C 57.167 64.904,57.079 64.872,56.792 64.972 C 56.585 65.044,56.229 65.078,56.000 65.048 C 55.771 65.018,55.490 64.996,55.375 65.000 C 55.086 65.011,54.541 65.010,54.292 64.998 C 53.877 64.979,50.136 65.197,45.917 65.486 C 44.542 65.580,42.667 65.702,41.750 65.757 C 40.833 65.812,39.858 65.885,39.583 65.920 C 39.308 65.955,38.671 66.027,38.167 66.080 C 35.874 66.321,35.583 66.364,35.503 66.470 C 35.413 66.589,35.392 66.594,34.174 66.846 C 32.522 67.187,31.382 67.370,30.667 67.409 C 27.939 67.557,22.459 68.071,21.667 68.253 C 21.438 68.306,20.950 68.379,20.583 68.416 C 20.217 68.453,19.879 68.496,19.833 68.511 C 19.787 68.527,19.694 68.531,19.625 68.520 C 19.556 68.509,19.500 68.556,19.500 68.625 C 19.499 68.694,19.228 68.769,18.897 68.793 C 18.565 68.817,18.059 68.942,17.772 69.072 C 17.023 69.411,14.374 69.779,9.250 70.256 C 8.608 70.316,8.001 70.432,7.901 70.514 C 7.801 70.597,7.672 70.616,7.614 70.558 C 7.556 70.500,7.412 70.528,7.296 70.620 C 6.715 71.080,2.564 72.099,0.833 72.207 L 0.083 72.254 0.041 89.460 L -0.002 106.667 55.184 106.667 C 107.672 106.667,110.364 106.652,110.258 106.375 C 110.171 106.146,110.190 106.127,110.351 106.286 C 110.511 106.445,110.602 106.427,110.772 106.203 C 110.976 105.934,110.990 105.935,110.995 106.214 C 110.999 106.460,111.058 106.481,111.333 106.333 C 111.664 106.156,111.667 105.984,111.667 85.333 C 111.667 64.682,111.664 64.510,111.333 64.333 C 111.024 64.168,111.000 63.984,111.000 61.807 C 111.000 59.739,110.970 59.484,110.750 59.667 C 110.612 59.781,110.495 59.809,110.488 59.729 C 110.482 59.649,110.365 59.947,110.228 60.392 C 109.987 61.177,109.971 61.192,109.657 60.908 C 109.308 60.592,109.284 60.633,109.329 61.458 C 109.359 61.995,108.850 62.264,108.593 61.848 C 108.460 61.634,108.005 61.729,107.806 62.012 C 107.674 62.199,107.653 62.179,107.709 61.917 C 107.777 61.597,107.703 61.585,105.848 61.627 C 104.786 61.651,102.304 61.700,100.333 61.736 C 96.594 61.805,94.179 61.937,93.489 62.108 C 93.266 62.164,92.765 62.245,92.376 62.288 C 91.930 62.338,91.709 62.433,91.778 62.545 C 91.847 62.657,91.786 62.684,91.616 62.619 C 91.466 62.562,91.297 62.591,91.238 62.685 C 91.180 62.779,91.024 62.814,90.891 62.763 C 90.758 62.712,90.690 62.737,90.740 62.818 C 90.790 62.898,90.643 62.954,90.414 62.941 C 90.155 62.926,90.027 62.838,90.076 62.708 C 90.120 62.594,90.084 62.500,89.995 62.500 C 89.906 62.500,89.833 62.562,89.833 62.639 C 89.833 62.871,89.172 62.745,88.824 62.447 C 88.644 62.293,88.422 62.167,88.331 62.167 C 88.241 62.167,88.167 62.087,88.167 61.990 C 88.167 61.893,88.100 61.855,88.017 61.906 C 87.935 61.957,87.831 61.901,87.785 61.782 C 87.740 61.663,87.339 61.382,86.895 61.158 C 86.451 60.933,85.899 60.563,85.668 60.333 C 85.438 60.104,84.968 59.774,84.624 59.599 C 84.281 59.424,84.000 59.228,84.000 59.164 C 84.000 59.099,83.470 58.879,82.822 58.675 C 82.175 58.470,81.604 58.198,81.555 58.069 C 81.505 57.940,81.398 57.877,81.316 57.927 C 81.234 57.978,81.167 57.928,81.167 57.815 C 81.167 57.703,81.120 57.658,81.063 57.715 C 81.006 57.772,80.687 57.681,80.354 57.513 C 80.022 57.345,79.525 57.159,79.250 57.101 C 78.975 57.042,78.563 56.954,78.333 56.906 C 77.739 56.779,72.433 56.613,72.333 56.717 M110.000 57.073 C 110.000 57.297,110.075 57.527,110.167 57.583 C 110.264 57.643,110.333 57.474,110.333 57.177 C 110.333 56.896,110.258 56.667,110.167 56.667 C 110.075 56.667,110.000 56.850,110.000 57.073 M109.618 62.042 C 109.578 62.248,109.545 62.079,109.545 61.667 C 109.545 61.254,109.578 61.085,109.618 61.292 C 109.657 61.498,109.657 61.835,109.618 62.042 " stroke="none" fill="#f4d45c" fill-rule="evenodd"></path><path id="path2" d="M0.000 15.000 L 0.000 30.000 1.708 30.005 C 8.633 30.027,18.413 30.658,19.758 31.170 C 20.462 31.438,27.075 32.140,31.500 32.417 C 34.049 32.576,36.516 32.928,38.439 33.407 C 40.079 33.815,43.094 34.203,46.333 34.421 C 47.204 34.480,48.179 34.555,48.500 34.589 C 48.821 34.623,49.871 34.732,50.833 34.832 C 52.782 35.035,53.958 35.177,54.333 35.256 C 54.471 35.285,55.126 35.426,55.789 35.568 C 58.176 36.082,59.600 36.283,62.333 36.495 C 69.632 37.060,71.504 37.249,72.167 37.488 C 72.860 37.739,75.367 38.315,76.167 38.407 C 78.313 38.656,80.572 38.837,83.500 38.995 C 88.119 39.244,90.534 39.466,93.583 39.922 C 95.050 40.142,97.037 40.360,98.000 40.405 C 105.921 40.783,107.615 40.797,108.351 40.493 C 108.730 40.336,108.887 40.337,109.083 40.500 C 109.290 40.672,109.336 40.653,109.347 40.395 C 109.357 40.170,109.424 40.222,109.589 40.583 L 109.818 41.083 109.826 40.595 C 109.830 40.327,109.906 39.877,109.994 39.595 C 110.083 39.314,110.199 38.868,110.252 38.605 C 110.306 38.342,110.380 38.157,110.417 38.194 C 110.453 38.231,110.385 38.741,110.264 39.327 C 110.078 40.231,110.079 40.346,110.272 40.081 C 110.397 39.910,110.500 39.498,110.500 39.167 C 110.500 38.535,110.984 37.604,110.995 38.214 C 111.007 38.906,111.667 38.194,111.667 37.488 C 111.667 36.873,111.641 36.835,111.333 37.000 C 111.058 37.147,110.999 37.126,110.995 36.881 C 110.990 36.607,110.970 36.609,110.745 36.907 C 110.569 37.139,110.499 37.162,110.497 36.990 C 110.495 36.795,110.468 36.792,110.354 36.972 C 110.241 37.151,110.193 37.143,110.112 36.931 C 110.056 36.785,110.083 36.667,110.172 36.667 C 110.430 36.667,110.358 35.728,110.083 35.500 C 109.946 35.386,109.839 35.208,109.846 35.105 C 109.855 34.987,109.891 34.994,109.944 35.125 C 109.990 35.240,110.134 35.333,110.264 35.333 C 110.429 35.333,110.504 35.547,110.512 36.042 C 110.521 36.590,110.556 36.675,110.667 36.417 C 110.835 36.025,110.882 2.280,110.715 1.667 L 110.602 1.250 110.484 1.667 C 110.372 2.063,110.366 2.065,110.350 1.708 C 110.341 1.502,110.261 1.333,110.172 1.333 C 110.083 1.333,110.056 1.215,110.112 1.069 C 110.193 0.857,110.241 0.849,110.354 1.028 C 110.470 1.211,110.495 1.210,110.497 1.021 C 110.500 0.837,110.548 0.833,110.750 1.000 C 110.963 1.177,111.000 1.130,111.000 0.681 C 111.000 0.207,111.033 0.172,111.333 0.333 C 111.599 0.476,111.667 0.460,111.667 0.256 C 111.667 0.026,105.921 0.000,55.833 0.000 L 0.000 0.000 0.000 15.000 M111.080 19.000 C 111.080 28.671,111.100 32.627,111.125 27.792 C 111.150 22.956,111.150 15.044,111.125 10.208 C 111.100 5.373,111.080 9.329,111.080 19.000 M109.833 39.500 C 109.833 39.895,109.578 39.943,109.436 39.575 C 109.379 39.426,109.407 39.359,109.502 39.418 C 109.593 39.474,109.667 39.440,109.667 39.343 C 109.667 39.246,109.704 39.167,109.750 39.167 C 109.796 39.167,109.833 39.317,109.833 39.500 M110.660 39.758 C 110.483 39.972,110.494 40.065,110.723 40.294 C 110.981 40.553,111.000 40.535,111.000 40.036 C 111.000 39.428,110.961 39.396,110.660 39.758 " stroke="none" fill="#94d4fc" fill-rule="evenodd"></path><path id="path3" d="M0.000 51.139 L 0.000 72.279 0.792 72.217 C 2.685 72.068,6.716 71.079,7.296 70.620 C 7.412 70.528,7.556 70.500,7.614 70.558 C 7.672 70.616,7.801 70.597,7.901 70.514 C 8.001 70.432,8.608 70.316,9.250 70.256 C 14.374 69.779,17.023 69.411,17.772 69.072 C 18.059 68.942,18.565 68.817,18.897 68.793 C 19.228 68.769,19.499 68.694,19.500 68.625 C 19.500 68.556,19.556 68.509,19.625 68.520 C 19.694 68.531,19.787 68.527,19.833 68.511 C 19.879 68.496,20.217 68.453,20.583 68.416 C 20.950 68.379,21.438 68.306,21.667 68.253 C 22.459 68.071,27.939 67.557,30.667 67.409 C 31.382 67.370,32.522 67.187,34.174 66.846 C 35.392 66.594,35.413 66.589,35.503 66.470 C 35.583 66.364,35.874 66.321,38.167 66.080 C 38.671 66.027,39.308 65.955,39.583 65.920 C 39.858 65.885,40.833 65.812,41.750 65.757 C 42.667 65.702,44.542 65.580,45.917 65.486 C 50.136 65.197,53.877 64.979,54.292 64.998 C 54.541 65.010,55.086 65.011,55.375 65.000 C 55.490 64.996,55.771 65.018,56.000 65.048 C 56.229 65.078,56.585 65.044,56.792 64.972 C 57.079 64.872,57.167 64.904,57.167 65.108 C 57.167 65.328,57.211 65.337,57.421 65.163 C 57.560 65.047,57.719 64.997,57.774 65.052 C 57.828 65.106,57.982 65.042,58.115 64.909 C 58.248 64.776,58.506 64.667,58.688 64.667 C 58.871 64.667,58.976 64.596,58.923 64.510 C 58.810 64.327,59.491 63.642,59.673 63.754 C 59.741 63.796,60.281 63.362,60.874 62.790 C 62.097 61.609,62.616 61.169,62.794 61.162 C 62.861 61.159,63.319 60.779,63.811 60.317 C 64.303 59.855,64.866 59.407,65.061 59.322 C 65.257 59.237,65.529 59.101,65.667 59.020 C 65.804 58.939,66.367 58.702,66.917 58.495 C 67.467 58.287,68.041 58.010,68.194 57.879 C 68.346 57.748,68.571 57.621,68.694 57.596 C 68.816 57.572,69.142 57.462,69.417 57.354 C 69.692 57.246,70.029 57.113,70.167 57.060 C 71.910 56.382,78.821 56.715,80.447 57.556 C 80.728 57.701,81.005 57.773,81.062 57.716 C 81.120 57.658,81.167 57.703,81.167 57.815 C 81.167 57.928,81.234 57.978,81.316 57.927 C 81.398 57.877,81.505 57.940,81.555 58.069 C 81.604 58.198,82.175 58.470,82.822 58.675 C 83.470 58.879,84.000 59.099,84.000 59.164 C 84.000 59.228,84.281 59.424,84.624 59.599 C 84.968 59.774,85.438 60.104,85.668 60.333 C 85.899 60.563,86.451 60.933,86.895 61.158 C 87.339 61.382,87.740 61.663,87.785 61.782 C 87.831 61.901,87.935 61.957,88.017 61.906 C 88.100 61.855,88.167 61.893,88.167 61.990 C 88.167 62.087,88.241 62.167,88.331 62.167 C 88.422 62.167,88.644 62.293,88.824 62.447 C 89.172 62.745,89.833 62.871,89.833 62.639 C 89.833 62.562,89.906 62.500,89.995 62.500 C 90.084 62.500,90.120 62.594,90.076 62.708 C 90.027 62.838,90.155 62.926,90.414 62.941 C 90.643 62.954,90.790 62.898,90.740 62.818 C 90.690 62.737,90.758 62.712,90.891 62.763 C 91.024 62.814,91.180 62.779,91.238 62.685 C 91.297 62.591,91.466 62.562,91.616 62.619 C 91.786 62.684,91.847 62.657,91.778 62.545 C 91.709 62.433,91.930 62.338,92.376 62.288 C 92.765 62.245,93.266 62.164,93.489 62.108 C 94.179 61.937,96.594 61.805,100.333 61.736 C 102.304 61.700,104.786 61.651,105.848 61.627 C 107.703 61.585,107.777 61.597,107.709 61.917 C 107.653 62.179,107.674 62.199,107.806 62.012 C 108.005 61.729,108.460 61.634,108.593 61.848 C 108.850 62.264,109.359 61.995,109.329 61.458 C 109.284 60.633,109.308 60.592,109.657 60.908 C 109.971 61.192,109.987 61.177,110.228 60.392 C 110.365 59.947,110.482 59.654,110.488 59.740 C 110.495 59.826,110.610 59.751,110.745 59.574 C 110.970 59.275,110.990 59.273,110.995 59.548 C 111.002 59.984,111.667 59.596,111.667 59.155 C 111.667 58.889,111.608 58.853,111.375 58.978 C 111.099 59.126,111.084 58.729,111.089 51.692 L 111.095 44.250 111.046 51.160 C 111.018 54.961,110.941 58.126,110.873 58.194 C 110.805 58.261,110.772 55.339,110.799 51.700 C 110.853 44.360,110.830 44.009,110.284 43.981 C 110.002 43.966,109.984 43.944,110.208 43.885 C 110.369 43.843,110.500 43.730,110.500 43.634 C 110.500 43.527,110.596 43.539,110.750 43.667 C 110.963 43.844,111.000 43.797,111.000 43.348 C 111.000 42.873,111.033 42.839,111.333 43.000 C 111.615 43.151,111.667 43.127,111.667 42.845 C 111.667 42.404,111.002 42.016,110.995 42.452 C 110.986 42.966,110.500 42.184,110.500 41.656 C 110.500 40.446,109.858 39.643,109.826 40.812 C 109.822 40.961,109.715 40.858,109.589 40.583 C 109.424 40.222,109.357 40.170,109.347 40.395 C 109.336 40.653,109.290 40.672,109.083 40.500 C 108.887 40.337,108.730 40.336,108.351 40.493 C 107.615 40.797,105.921 40.783,98.000 40.405 C 97.037 40.360,95.050 40.142,93.583 39.922 C 90.534 39.466,88.119 39.244,83.500 38.995 C 80.572 38.837,78.313 38.656,76.167 38.407 C 75.367 38.315,72.860 37.739,72.167 37.488 C 71.504 37.249,69.632 37.060,62.333 36.495 C 59.600 36.283,58.176 36.082,55.789 35.568 C 55.126 35.426,54.471 35.285,54.333 35.256 C 53.958 35.177,52.782 35.035,50.833 34.832 C 49.871 34.732,48.821 34.623,48.500 34.589 C 48.179 34.555,47.204 34.480,46.333 34.421 C 43.094 34.203,40.079 33.815,38.439 33.407 C 36.516 32.928,34.049 32.576,31.500 32.417 C 27.075 32.140,20.462 31.438,19.758 31.170 C 18.413 30.658,8.633 30.027,1.708 30.005 L 0.000 30.000 0.000 51.139 M110.388 41.896 C 110.517 42.745,110.327 42.544,110.165 41.660 C 110.096 41.282,110.096 41.035,110.165 41.112 C 110.234 41.188,110.334 41.541,110.388 41.896 M110.333 57.177 C 110.333 57.474,110.264 57.643,110.167 57.583 C 110.075 57.527,110.000 57.297,110.000 57.073 C 110.000 56.850,110.075 56.667,110.167 56.667 C 110.258 56.667,110.333 56.896,110.333 57.177 M109.545 61.667 C 109.545 62.079,109.578 62.248,109.618 62.042 C 109.657 61.835,109.657 61.498,109.618 61.292 C 109.578 61.085,109.545 61.254,109.545 61.667 M110.756 106.213 C 110.655 106.445,110.578 106.467,110.393 106.314 C 110.205 106.158,110.180 106.173,110.264 106.393 C 110.408 106.767,111.667 106.783,111.667 106.411 C 111.667 106.210,111.598 106.192,111.345 106.327 C 111.090 106.464,111.010 106.439,110.955 106.208 C 110.889 105.933,110.878 105.933,110.756 106.213 " stroke="none" fill="#a4c454" fill-rule="evenodd"></path><path id="path4" d="" stroke="none" fill="#e0e0100" fill-rule="evenodd"></path><path id="path5" d="" stroke="none" fill="#e0e0100" fill-rule="evenodd"></path><path id="path6" d="" stroke="none" fill="#e0e0100" fill-rule="evenodd"></path><path id="path7" d="" stroke="none" fill="#e0e0100" fill-rule="evenodd"></path><path id="path8" d="" stroke="none" fill="#e0e0100" fill-rule="evenodd"></path></g></svg>